<?xml version="1.0" encoding="UTF-8"?>
<svg xmlns="http://www.w3.org/2000/svg" width="1440" height="900" viewBox="0 0 1440 900" role="img" aria-label="Fondo">
  <defs>
    <linearGradient id="g" x1="0" y1="0" x2="1" y2="1">
      <stop offset="0" stop-color="#667eea"/>
      <stop offset="1" stop-color="#764ba2"/>
    </linearGradient>
    <radialGradient id="r1" cx="30%" cy="25%" r="55%">
      <stop offset="0" stop-color="#ffffff" stop-opacity="0.22"/>
      <stop offset="1" stop-color="#ffffff" stop-opacity="0"/>
    </radialGradient>
    <radialGradient id="r2" cx="75%" cy="65%" r="60%">
      <stop offset="0" stop-color="#ffffff" stop-opacity="0.18"/>
      <stop offset="1" stop-color="#ffffff" stop-opacity="0"/>
    </radialGradient>
    <pattern id="grid" width="48" height="48" patternUnits="userSpaceOnUse">
      <path d="M 48 0 L 0 0 0 48" fill="none" stroke="#ffffff" stroke-opacity="0.10" stroke-width="1"/>
    </pattern>
  </defs>

  <rect width="1440" height="900" fill="url(#g)"/>
  <rect width="1440" height="900" fill="url(#grid)"/>

  <circle cx="380" cy="210" r="360" fill="url(#r1)"/>
  <circle cx="1120" cy="650" r="420" fill="url(#r2)"/>

  <!-- Formas suaves (decoración mínima) -->
  <path d="M 0 720 C 220 610, 420 660, 620 560 C 820 460, 1020 430, 1440 510 L 1440 900 L 0 900 Z" fill="#ffffff" fill-opacity="0.08"/>
  <path d="M 0 780 C 240 700, 420 740, 650 650 C 880 560, 1080 530, 1440 600 L 1440 900 L 0 900 Z" fill="#000000" fill-opacity="0.07"/>
</svg>
